Simulation
nRows=28
nColumns=15
endheader
time  TH_x TH_y TH_z SC_y  SC_z  SC_x  AC_y  AC_z  AC_x  GH_y  GH_z  GH_yy  EL_x  PS_y
2.8725  0.000000  0.000000  0.000000  -34.540173433361026  0.4407969503638767  -23.73504659003097  37.67150664992559  21.369594530538503  15.138946918777911  40.32928740262053  7.885831686499241  -33.178855421177275  14.065747343238565  120.000000
2.92995  0.000000  0.000000  0.000000  -34.60177209048514  0.4116649455283061  -22.89805050393667  38.14927481019789  21.341563151966913  14.694501813756427  50.31825305102575  6.882312082654557  -40.357992004630674  14.428437389062799  120.000000
2.9874  0.000000  0.000000  0.000000  -34.75754900132487  0.45746395060733314  -21.84215999749299  38.64586392329497  21.207639704382185  14.120394583129837  61.87848537778637  6.291658088301378  -49.54915111014401  14.874705013968128  120.000000
3.0448500000000003  0.000000  0.000000  0.000000  -34.977018781410706  0.5818686461582985  -20.62175251597534  39.12179243148485  20.961720451397017  13.447274510045439  73.68063679704576  6.069545310076029  -59.461262215396005  15.35960975379439  120.000000
3.1023  0.000000  0.000000  0.000000  -35.226441213742376  0.7783668425293225  -19.294139064650025  39.55539067760871  20.61013967986366  12.706709573460737  84.2662052777921  6.1201786915386895  -68.61857350682448  15.840861837851108  120.000000
3.15975  0.000000  0.000000  0.000000  -35.475984123030464  1.030899673629844  -17.91784950988636  39.94173662773855  20.1720360813537  11.932103241214072  92.80875377558141  6.325383945769002  -76.13896530561598  16.289286003362783  120.000000
3.2172  0.000000  0.000000  0.000000  -35.70403119348821  1.3137383706896457  -16.54582090653336  40.284532469792566  19.67178591987908  11.157294726104146  99.19002365510497  6.581048174829176  -81.82522218391694  16.695086360376305  120.000000
3.2746500000000003  0.000000  0.000000  0.000000  -35.89340839201973  1.6001339631838094  -15.22027343360007  40.595167157736235  19.132116089414573  10.408307534034156  103.67402432769988  6.817519841147699  -85.85233767709964  17.06620715447564  120.000000
3.3321  0.000000  0.000000  0.000000  -36.03063048348409  1.8678882227293767  -13.973508885543085  40.888044167261796  18.572058975312437  9.70127608246334  106.62749386606399  7.000428578806259  -88.50064055498179  17.4189253004802  120.000000
3.38955  0.000000  0.000000  0.000000  -36.10987695332514  2.1002566579676567  -12.827383988197534  41.17257949399168  18.005400597728002  9.045362279221084  108.39908536027441  7.121439829850231  -90.04638494191713  17.76803764812021  120.000000
3.447  0.000000  0.000000  0.000000  -36.13431926632345  2.289080581580935  -11.794094232669464  41.452577382791205  17.44214853579092  8.44509647215233  109.2774463274217  7.191384261547596  -90.72762178727139  18.122268203982856  120.000000
3.5044500000000003  0.000000  0.000000  0.000000  -36.11532271012133  2.432637489563913  -10.87764719360531  41.72628225278499  16.890904948061852  7.902383565412592  109.48139670683187  7.230589829075652  -90.73526644037025  18.48400071104577  120.000000
3.5619  0.000000  0.000000  0.000000  -36.06792032676929  2.5335350545212996  -10.076528485355357  41.98717449598831  16.359707990375476  7.417787895725952  109.17630397299435  7.259229958426215  -90.22404322521648  18.85143139269057  120.000000
3.61935  0.000000  0.000000  0.000000  -36.00543320629443  2.5983410240274654  -9.387054397870871  42.227020089765325  15.85615254593759  6.990468603073769  108.48795272913186  7.292964059078528  -89.31841968807264  19.221865216507055  120.000000
3.6768  0.000000  0.000000  0.000000  -35.93573701177615  2.635617967920405  -8.805986222126437  42.43708693683772  15.386784988758683  6.618083781561964  107.50837479811972  7.341603120382318  -88.11218264772323  19.593625390505828  120.000000
3.7342500000000003  0.000000  0.000000  0.000000  -35.86030731178941  2.65328106204047  -8.331882716367701  42.608080990796715  14.95608683042281  6.296766533326367  106.29322404838098  7.409497341536431  -86.66189189065949  19.966460531793317  120.000000
3.7917  0.000000  0.000000  0.000000  -35.775483138959444  2.6566662243151367  -7.965063489397722  42.72992397076337  14.565774486312398  6.0215512770819215  104.85272272388886  7.496910748791337  -84.97617611448344  20.34097196724161  120.000000
3.84915  0.000000  0.000000  0.000000  -35.6737704284982  2.647727479004394  -7.707191880744369  42.79313383125419  14.214914423885261  5.786540198131522  103.13896887951174  7.601935216682913  -83.00209794919904  20.71761288363056  120.000000
3.9066  0.000000  0.000000  0.000000  -35.54531560339707  2.62427352019014  -7.560702071280071  42.79013494229107  13.900655920263427  5.585205686499789  101.03941273703192  7.722270904731953  -80.61861116367484  21.095546039111795  120.000000
3.9640500000000003  0.000000  0.000000  0.000000  -35.37861935582942  2.580874720275622  -7.528578951496494  42.71704995997449  13.619103067925748  5.4106293565235655  98.38195572686442  7.859241135046842  -77.64319696546731  21.4722200850772  120.000000
4.0215  0.000000  0.000000  0.000000  -35.162651591721755  2.511010558959935  -7.614175868048659  42.573922643315015  13.36556759707371  5.256319598909006  94.96244916606712  8.025523608576975  -73.86444890665405  21.84355944206411  120.000000
4.07895  0.000000  0.000000  0.000000  -34.889435548710416  2.408382968880664  -7.8208408352433825  42.36428883190559  13.134819535530251  5.116767368649176  90.60740303766254  8.255550813997681  -69.11238229637058  22.203302101604834  120.000000
4.1364  0.000000  0.000000  0.000000  -34.557808372478526  2.2694904283993727  -8.15010344129079  42.094699512698135  12.920937169533726  4.989625331231392  85.28812673469795  8.615358678056602  -63.38067734390577  22.541338160219293  120.000000
4.19385  0.000000  0.000000  0.000000  -34.17522239153712  2.0957327252532263  -8.597349792066305  41.77145853050164  12.718047482973134  4.880040792837076  79.24999886796014  9.198279933138766  -56.95889902614706  22.841394136417193  120.000000
4.2513000000000005  0.000000  0.000000  0.000000  -33.75908360834661  1.8985233669632915  -9.146630287243443  41.393241299595964  12.521376480633684  4.805559181961597  73.02541084576403  10.097137325614273  -50.440056514434225  23.080813712667556  120.000000
4.30875  0.000000  0.000000  0.000000  -33.33402497454256  1.7145041165079227  -9.772872397536874  40.96393024677453  12.332390185441916  4.787907429919447  67.23509963798044  11.377478084822124  -44.5088360217084  23.239322921903913  120.000000
4.3662  0.000000  0.000000  0.000000  -32.94046206543183  1.6084086092570682  -10.444818592214657  40.50995628282542  12.159437717490485  4.846994880929918  62.33926667504926  13.076315785649046  -39.678608510836696  23.314590830551168  120.000000
4.42365  0.000000  0.000000  0.000000  -32.65362731760233  1.650302903697127  -11.116921791494958  40.059528180316505  12.003391312359646  5.020701720960342  58.53800005125533  15.204781959723798  -36.17641338994686  23.333843562704477  120.000000
